<svg width="549" height="393" viewBox="0 0 549 393" fill="none" xmlns="http://www.w3.org/2000/svg">
<path d="M365.268 90.0079H362.272C361.611 90.0079 361.075 90.5445 361.075 91.2064V133.308C361.075 133.97 361.611 134.507 362.272 134.507H365.268C365.929 134.507 366.465 133.97 366.465 133.308V91.2064C366.465 90.5445 365.929 90.0079 365.268 90.0079Z" fill="#3F3D56"/>
<path d="M184.072 55.1447H182.613C182.18 55.1447 181.829 55.4961 181.829 55.9297V69.0093C181.829 69.4429 182.18 69.7944 182.613 69.7944H184.072C184.505 69.7944 184.856 69.4429 184.856 69.0093V55.9297C184.856 55.4961 184.505 55.1447 184.072 55.1447Z" fill="#3F3D56"/>
<path d="M184.244 81.9686H182.603C182.115 81.9686 181.719 82.3646 181.719 82.8531V106.584C181.719 107.072 182.115 107.468 182.603 107.468H184.244C184.732 107.468 185.128 107.072 185.128 106.584V82.8531C185.128 82.3646 184.732 81.9686 184.244 81.9686Z" fill="#3F3D56"/>
<path d="M184.176 116.387H182.613C182.148 116.387 181.771 116.764 181.771 117.23V141.264C181.771 141.729 182.148 142.106 182.613 142.106H184.176C184.641 142.106 185.018 141.729 185.018 141.264V117.23C185.018 116.764 184.641 116.387 184.176 116.387Z" fill="#3F3D56"/>
<path d="M345.321 6.73605H202.205C191.899 6.73605 183.544 15.0993 183.544 25.4159V355.148C183.544 365.465 191.899 373.828 202.205 373.828H345.321C355.627 373.828 363.982 365.465 363.982 355.148V25.4159C363.982 15.0993 355.627 6.73605 345.321 6.73605Z" fill="#3F3D56"/>
<path d="M280.225 17.6959H257.685C256.952 17.6959 256.357 18.2911 256.357 19.0253V21.4905C256.357 22.2247 256.952 22.8199 257.685 22.8199H280.225C280.959 22.8199 281.553 22.2247 281.553 21.4905V19.0253C281.553 18.2911 280.959 17.6959 280.225 17.6959Z" fill="#E6E8EC"/>
<path d="M288.267 23.1601C289.869 23.1601 291.169 21.8596 291.169 20.2553C291.169 18.651 289.869 17.3505 288.267 17.3505C286.664 17.3505 285.365 18.651 285.365 20.2553C285.365 21.8596 286.664 23.1601 288.267 23.1601Z" fill="#E6E8EC"/>
<path d="M352.84 30.6394V349.909C352.838 353.713 351.328 357.361 348.64 360.05C345.953 362.739 342.308 364.25 338.508 364.25H209.017C205.217 364.25 201.573 362.739 198.885 360.05C196.198 357.361 194.687 353.713 194.686 349.909V30.6394C194.686 28.7554 195.057 26.8899 195.777 25.1494C196.497 23.4088 197.553 21.8273 198.884 20.4951C200.214 19.163 201.794 18.1062 203.533 17.3853C205.272 16.6643 207.135 16.2932 209.017 16.2932H228.395V18.7846C228.4 21.9144 229.646 24.9143 231.858 27.1259C234.07 29.3376 237.069 30.5805 240.195 30.5818H306.075C307.625 30.5818 309.16 30.2763 310.591 29.6826C312.023 29.089 313.324 28.2188 314.42 27.1219C315.516 26.025 316.385 24.7227 316.978 23.2895C317.571 21.8563 317.876 20.3202 317.876 18.7689V16.2932H338.534C342.331 16.3001 345.969 17.8147 348.651 20.5044C351.333 23.194 352.84 26.8391 352.84 30.6394Z" fill="white"/>
<path opacity="0.2" d="M353.974 162.477V271.044H352.84V271.154H194.686V138.516C195.7 137.357 196.729 136.155 197.771 134.91C219.982 108.358 250.172 101.371 273.538 100.638C289.548 100.115 305.485 103.428 320.7 110.007C328.736 113.482 340.27 117.292 352.84 117.669V158.714C353.608 160.907 353.974 162.477 353.974 162.477Z" fill="#5C5C5F"/>
<path opacity="0.2" d="M353.974 162.477V271.044H194.686V199.926C200.359 198.497 208.28 193.001 218.445 177.817C230.601 159.651 247.118 154.872 259.902 154.369C268.66 154.024 277.381 156.275 285.705 160.781C295.069 165.842 313.118 171.945 326.833 154.228C341.996 134.638 350.058 150.795 352.84 158.714C353.608 160.907 353.974 162.477 353.974 162.477Z" fill="#0076FF"/>
<path d="M330.969 251.161H216.986C213.521 251.161 210.711 253.972 210.711 257.441V284.658C210.711 288.126 213.521 290.938 216.986 290.938H330.969C334.434 290.938 337.243 288.126 337.243 284.658V257.441C337.243 253.972 334.434 251.161 330.969 251.161Z" fill="#0076FF"/>
<path d="M119.337 304.772C118.573 305.443 117.984 306.291 117.622 307.242C116.728 310.037 119.227 312.78 119.468 315.705C119.656 318.029 118.422 320.196 117.721 322.426C116.931 325.195 116.982 328.138 117.868 330.879C118.755 333.619 120.436 336.033 122.699 337.813C123.181 338.223 123.749 338.516 124.362 338.672C124.867 338.733 125.379 338.69 125.867 338.546C126.355 338.402 126.809 338.16 127.201 337.834C128.415 336.95 129.341 335.727 129.862 334.317C130.296 332.932 130.53 331.492 130.557 330.041L130.929 324.441C131.316 318.595 131.666 312.565 130.244 306.823C129.778 304.939 128.916 300.611 126.741 300.349C124.565 300.087 120.78 303.359 119.337 304.772Z" fill="#3F3D56"/>
<path d="M155.811 280.717C153.2 289.898 151.306 299.269 150.149 308.744C149.982 310.079 149.809 311.482 149.004 312.56C147.399 314.721 144.183 314.585 141.517 314.235C140.876 314.201 140.252 314.022 139.692 313.711C138.688 313.031 138.468 311.67 138.348 310.461C136.521 292.638 135.301 274.767 134.688 256.85C134.662 256.164 157.009 256.101 158.922 257.897C160.836 259.692 159.351 266.407 158.922 268.694C158.222 272.766 156.956 276.733 155.811 280.717Z" fill="#FBBEBE"/>
<path opacity="0.05" d="M155.811 280.717C153.2 289.898 151.306 299.269 150.149 308.744C149.982 310.079 149.809 311.482 149.004 312.56C147.399 314.721 144.183 314.585 141.517 314.235C140.876 314.201 140.252 314.022 139.692 313.711C138.688 313.031 138.468 311.67 138.348 310.461C136.521 292.638 135.301 274.767 134.688 256.85C134.662 256.164 157.009 256.101 158.922 257.897C160.836 259.692 159.351 266.407 158.922 268.694C158.222 272.766 156.956 276.733 155.811 280.717Z" fill="black"/>
<path d="M109.277 254.301L118.328 274.226C121.339 280.853 124.372 287.552 125.81 294.686C126.387 297.666 126.755 300.683 126.913 303.714C127.132 306.313 127.051 308.928 126.673 311.508C126.343 313.423 125.737 315.287 125.47 317.213C124.424 324.891 128.769 332.114 131.744 339.258C134.315 345.394 135.95 351.881 136.596 358.503C136.868 361.324 137.02 364.318 138.63 366.647C141.574 365.763 144.45 364.998 147.519 365.344C148.068 360.838 145.224 356.687 144.178 352.259C142.259 344.146 146.499 335.62 145.056 327.408C144.272 322.96 141.841 318.772 142.039 314.261C142.411 306.033 143.953 297.722 142.384 289.661C140.617 280.549 135.535 272.264 134.411 263.052C133.548 255.976 134.934 248.151 130.997 242.205C122.396 241.698 113.502 246.78 109.277 254.301Z" fill="#FBBEBE"/>
<path d="M139.023 379.434C138.118 379.465 137.062 379.434 136.502 378.717C136.229 378.3 136.072 377.817 136.047 377.319C135.619 374.164 135.409 370.983 135.42 367.799C135.42 366.637 135.472 365.402 136.121 364.444C136.596 363.859 137.139 363.332 137.736 362.874C139.122 361.591 140.131 359.733 141.919 359.142C142.703 358.914 143.533 358.903 144.322 359.11C145.111 359.317 145.83 359.735 146.4 360.319C147.528 361.523 148.227 363.067 148.387 364.711C148.648 366.658 148.429 368.777 149.459 370.468C149.867 371.122 150.437 371.656 150.897 372.274C152.465 374.367 153.872 378.465 150.635 379.313C147.205 380.208 142.583 379.319 139.023 379.434Z" fill="#3F3D56"/>
<path d="M146.871 136.38C148.701 132.842 147.608 128.289 144.994 125.285C142.379 122.28 138.557 120.605 134.657 119.7C129.428 118.475 123.823 118.486 118.819 120.412C114.83 121.945 111.395 124.599 107.714 126.766C101.209 130.599 93.9282 132.924 86.4074 133.57C78.0417 134.276 68.6982 133.177 62.2305 138.511C50.3826 148.277 58.6332 170.286 47.5905 180.942C44.6102 183.816 40.6313 185.37 37.217 187.71C33.8028 190.049 30.7493 193.791 31.2983 197.895C31.5597 199.868 32.6368 201.648 33.8812 203.202C39.2248 209.886 48.197 213.387 56.683 212.346C65.169 211.304 72.9386 205.85 77.0744 198.345C78.1201 196.466 78.9671 194.409 80.6142 193.043C83.9134 190.316 88.755 191.42 93.032 191.29C102.543 190.997 111.18 182.837 112.012 173.343C112.367 169.286 111.677 164.565 114.589 161.718C116.937 159.415 120.607 159.436 123.818 158.729C129.716 157.437 134.008 153.166 136.701 147.953C137.935 145.556 137.81 142.876 139.64 140.887C141.59 138.699 145.129 139.741 146.871 136.38Z" fill="#3F3D56"/>
<g opacity="0.1">
<path opacity="0.1" d="M78.6116 135.229C82.0804 134.933 85.5094 134.279 88.8439 133.277C87.9027 133.408 86.9616 133.518 86.0152 133.596C79.4586 134.146 72.285 133.596 66.3767 135.904C70.4027 135.491 74.6222 135.564 78.6116 135.229Z" fill="black"/>
<path opacity="0.1" d="M72.7765 194.702C71.1295 196.063 70.2616 198.125 69.2368 200.004C66.0681 205.722 60.9939 210.144 54.9 212.497C55.3654 212.466 55.8307 212.424 56.2961 212.367C64.782 211.32 72.5517 205.877 76.6875 198.371C77.7332 196.492 78.575 194.43 80.2272 193.069L80.5096 192.849C77.6391 192.781 74.8889 192.954 72.7765 194.702Z" fill="black"/>
<path opacity="0.1" d="M144.601 125.316C141.987 122.312 138.139 120.642 134.264 119.731C129.036 118.507 123.431 118.522 118.422 120.448L118.087 120.584C121.034 120.417 123.99 120.679 126.861 121.364C130.735 122.275 134.589 123.945 137.198 126.954C139.807 129.964 140.905 134.512 139.075 138.05C137.334 141.41 133.794 140.364 131.802 142.536C129.972 144.519 130.097 147.204 128.863 149.601C126.547 154.087 123.039 157.866 118.354 159.661C119.99 159.274 121.747 159.101 123.379 158.745C129.276 157.447 133.569 153.181 136.262 147.968C137.501 145.571 137.375 142.886 139.2 140.903C141.198 138.731 144.737 139.772 146.473 136.417C148.303 132.889 147.21 128.336 144.601 125.316Z" fill="black"/>
<path opacity="0.1" d="M115.98 160.383C112.77 161.085 109.099 161.069 106.752 163.367C103.839 166.219 104.53 170.94 104.174 174.996C103.552 182.088 98.569 188.437 92.1222 191.321H92.598C102.109 191.028 110.741 182.863 111.572 173.374C111.933 169.312 111.243 164.591 114.155 161.744C114.823 161.107 115.608 160.605 116.466 160.268L115.98 160.383Z" fill="black"/>
</g>
<path d="M147.027 184.014C146.593 184.784 145.699 185.14 144.868 185.449C136.262 188.62 127.206 191.85 118.129 190.515C117.789 189.086 117.455 187.652 117.12 186.223C116.636 184.151 116.148 182.078 115.656 180.005C115.426 179.016 115.191 178.016 115.002 177.011C114.678 175.425 114.574 173.801 114.694 172.186C114.749 171.6 114.854 171.021 115.008 170.453C115.276 169.421 115.726 168.444 116.336 167.569C116.44 167.428 116.55 167.287 116.665 167.151C117.182 166.527 117.81 166.003 118.516 165.607C120.058 164.759 122.176 164.398 122.798 162.754C123.039 161.895 123.015 160.983 122.73 160.137C122.207 158.044 121.261 156.076 120.675 154.003C119.933 151.386 121.052 151.548 123.577 150.915C128.126 149.769 132.884 148.947 137.553 149.868C137.334 152.176 137.119 154.542 137.7 156.793C138.28 159.043 139.833 161.179 142.066 161.802C142.395 161.896 142.745 161.953 143.111 162.032C143.596 162.11 144.056 162.3 144.455 162.587C144.73 162.814 144.949 163.103 145.093 163.429C145.32 163.982 145.47 164.563 145.537 165.157C146.356 170.649 146.947 176.167 147.31 181.712V181.921C147.417 182.631 147.319 183.358 147.027 184.014Z" fill="#FBBEBE"/>
<path d="M102.721 174.996C100.765 177.975 100.106 181.596 99.5102 185.114L95.7143 207.148C95.1914 210.163 94.7261 213.476 96.2685 216.119C96.7914 217.014 97.5234 217.789 97.9051 218.736C98.1934 219.69 98.3827 220.67 98.4697 221.662C99.3586 226.713 104.321 230.12 109.298 231.345C111.097 231.79 113.199 231.962 114.616 230.764C116.184 229.461 116.184 226.98 115.259 225.19C114.333 223.4 112.644 222.133 111.008 220.935L105.586 216.936L108.723 192.86C108.953 191.112 109.769 188.845 111.536 189.039C113.146 189.212 114.386 191.562 115.818 190.803C116.267 190.499 116.583 190.034 116.702 189.505C117.329 187.532 117.157 185.407 116.979 183.339L116.331 175.876C116.116 173.452 116.738 171.636 117.031 169.359C117.371 166.706 115.604 167.512 113.423 168.082C109.235 169.192 105.141 171.301 102.721 174.996Z" fill="#FBBEBE"/>
<path d="M170.143 211.184C169.745 211.855 169.154 212.391 168.449 212.723C164.215 215.112 159.237 215.813 154.509 214.685C153.42 214.365 152.313 214.106 151.195 213.911C149.406 213.691 147.587 214.047 145.783 213.911C142.123 213.633 138.907 211.346 136.372 208.677C134.845 207.107 133.459 204.537 134.881 202.851C135.279 202.445 135.772 202.145 136.316 201.98C136.86 201.816 137.437 201.791 137.992 201.909C139.099 202.156 140.167 202.554 141.166 203.092C144.665 204.716 148.409 205.749 152.245 206.149C154.86 206.421 158.185 205.976 159.09 203.49C159.529 202.281 159.22 200.941 158.912 199.69C158.068 196.264 157.225 192.835 156.381 189.405C156.323 189.106 156.217 188.818 156.068 188.552C156.025 188.48 155.974 188.414 155.916 188.353C155.583 188.075 155.179 187.894 154.75 187.83C152.8 187.348 150.849 186.569 149.453 185.129C148.538 184.107 147.809 182.933 147.299 181.659C147.153 181.34 147.017 181.015 146.876 180.691C145.804 178.189 144.675 175.624 143.801 172.997C143.192 171.221 142.742 169.394 142.458 167.538C142.228 165.931 142.102 165.193 142.98 164.481C143.216 164.304 143.466 164.146 143.728 164.01C144.131 163.796 144.586 163.581 145.067 163.377L145.532 163.183C146.962 162.611 148.432 162.142 149.929 161.781C153.558 160.938 157.432 162.697 159.921 165.476C162.41 168.255 163.701 171.893 164.527 175.53C165.354 179.168 165.777 182.894 166.812 186.474C167.215 187.877 167.717 189.259 168.062 190.662C168.432 192.33 168.696 194.021 168.851 195.723C169.343 200.06 169.833 204.397 170.321 208.734C170.501 209.551 170.439 210.402 170.143 211.184Z" fill="#FBBEBE"/>
<path d="M116.456 209.3C117.502 215.978 114.495 222.547 111.588 228.665C113.235 229.869 115.248 230.466 117.214 230.984C130.372 234.446 144.051 235.477 157.579 234.025C157.903 231.764 158.206 229.366 157.281 227.283C156.705 225.991 155.712 224.939 155.079 223.672C154.034 221.578 154.138 219.145 154.253 216.821L155.189 197.021C148.701 194.027 141.177 196.832 134.04 197.235C130.343 197.445 126.599 196.995 122.955 197.649C121.062 197.989 115.112 198.926 114.218 200.878C113.324 202.83 116.137 207.175 116.456 209.3Z" fill="#FBBEBE"/>
<path opacity="0.05" d="M116.456 209.3C117.502 215.978 114.495 222.547 111.588 228.665C113.235 229.869 115.248 230.466 117.214 230.984C130.372 234.446 144.051 235.477 157.579 234.025C157.903 231.764 158.206 229.366 157.281 227.283C156.705 225.991 155.712 224.939 155.079 223.672C154.034 221.578 154.138 219.145 154.253 216.821L155.189 197.021C148.701 194.027 141.177 196.832 134.04 197.235C130.343 197.445 126.599 196.995 122.955 197.649C121.062 197.989 115.112 198.926 114.218 200.878C113.324 202.83 116.137 207.175 116.456 209.3Z" fill="#FF6F61"/>
<path d="M133.648 228.466C126.615 227.001 119.703 224.577 112.524 224.41C112.164 224.373 111.8 224.442 111.478 224.609C111.128 224.899 110.894 225.306 110.82 225.755C110.077 228.32 109.413 230.904 108.828 233.507C106.883 242.158 105.926 251.715 110.203 259.482C110.161 256.96 111.745 254.599 113.863 253.202C115.98 251.804 118.516 251.239 121.026 251.009C123.536 250.778 126.218 250.873 128.555 251.904C130.188 252.647 131.597 253.807 132.641 255.268C133.685 256.728 134.326 258.438 134.5 260.226L159.205 261.026C159.349 261.069 159.502 261.074 159.65 261.042C159.797 261.011 159.934 260.942 160.048 260.844C160.162 260.746 160.25 260.621 160.304 260.48C160.357 260.339 160.375 260.187 160.355 260.037C161.266 252.104 161.233 244.091 160.256 236.165C159.984 233.951 159.947 230.879 157.459 230.047C154.489 229.052 149.793 230.214 146.62 230.078C142.259 229.895 137.921 229.356 133.648 228.466Z" fill="#3F3D56"/>
<path d="M156.073 189.693L155.994 200.684L131.002 201.517C126.416 201.674 121.794 201.831 117.324 202.851C116.038 203.144 114.767 203.511 113.502 203.872C112.184 199.041 110.888 193.98 111.233 189.055C111.328 187.726 111.559 186.411 111.923 185.129C112.718 182.366 114.208 179.759 115.002 177.027C115.323 175.963 115.499 174.861 115.525 173.751C115.466 172.642 115.291 171.542 115.002 170.469C114.773 169.589 114.664 168.683 114.678 167.774L116.66 167.161C116.717 167.397 116.764 167.627 116.806 167.868C116.89 168.365 116.958 168.873 117.005 169.38C117.117 170.638 117.152 171.902 117.11 173.164C117.042 175.687 116.702 178.498 118.275 180.492C120.32 183.051 124.252 182.654 127.462 182.015L135.87 180.335C138.526 179.812 141.49 179.068 142.876 176.739C143.467 175.608 143.779 174.352 143.786 173.076V172.824C143.911 170.044 143.634 167.261 142.965 164.56C142.761 163.712 142.51 162.875 142.228 162.053H143.069C143.554 162.131 144.014 162.321 144.413 162.608C144.688 162.835 144.907 163.124 145.051 163.45L145.516 163.257C147.371 170.848 150.429 178.092 154.572 184.716C155.105 185.474 155.528 186.304 155.827 187.181C155.951 187.657 156.022 188.145 156.036 188.636C156.078 188.945 156.073 189.316 156.073 189.693Z" fill="#FF6F61"/>
<path d="M129.669 156.426C138.043 156.426 144.831 149.631 144.831 141.248C144.831 132.865 138.043 126.07 129.669 126.07C121.294 126.07 114.506 132.865 114.506 141.248C114.506 149.631 121.294 156.426 129.669 156.426Z" fill="#FBBEBE"/>
<path d="M102.721 174.996C100.765 177.974 100.106 181.596 99.5102 185.114L95.7143 207.148C95.1914 210.163 94.7261 213.476 96.2685 216.119C96.7914 217.014 97.5234 217.789 97.9051 218.736C98.1934 219.69 98.3827 220.67 98.4697 221.662C99.3586 226.713 104.321 230.12 109.298 231.345C111.097 231.79 113.199 231.962 114.616 230.764C116.184 229.461 116.184 226.98 115.259 225.19C114.333 223.4 112.644 222.133 111.008 220.935L105.586 216.936L108.723 192.86C108.932 191.127 105.141 171.301 102.721 174.996Z" fill="#FBBEBE"/>
<path d="M164.533 175.562C165.359 179.199 165.782 182.926 166.818 186.506C167.22 187.914 167.722 189.29 168.067 190.693C168.437 192.36 168.701 194.049 168.857 195.749L170.326 208.76C170.495 209.564 170.432 210.399 170.143 211.168C169.743 211.838 169.153 212.373 168.449 212.707C164.213 215.09 159.237 215.791 154.509 214.67C153.421 214.344 152.314 214.086 151.195 213.895C149.406 213.67 147.587 214.031 145.783 213.895C142.123 213.618 138.907 211.336 136.372 208.687C134.845 207.117 133.459 204.542 134.881 202.857C135.279 202.45 135.772 202.15 136.316 201.986C136.86 201.821 137.437 201.796 137.992 201.915C139.1 202.163 140.168 202.563 141.166 203.103C144.667 204.723 148.41 205.754 152.245 206.154C154.86 206.431 158.185 205.987 159.09 203.495C159.529 202.286 159.22 200.946 158.912 199.695L156.381 189.411C156.277 189.055 163.707 171.929 164.533 175.562Z" fill="#FBBEBE"/>
<path d="M120.283 145.922C119.609 143.499 118.662 140.468 120.56 138.825C121.243 138.298 122.064 137.983 122.924 137.919C127.185 137.396 131.593 139.908 135.671 138.568C136.972 138.143 138.122 137.349 138.982 136.284C139.843 135.219 140.377 133.927 140.52 132.565C140.663 131.202 140.409 129.827 139.789 128.606C139.169 127.385 138.209 126.369 137.025 125.682C135.242 124.636 133.114 124.431 131.059 124.248C125.648 123.751 120.006 123.29 114.945 125.295C109.884 127.3 105.617 132.46 106.663 137.804C107.149 140.353 108.723 142.546 110.323 144.577C111.552 146.121 116.482 153.474 118.464 153.37C121.256 153.213 120.723 147.497 120.283 145.922Z" fill="#3F3D56"/>
<path opacity="0.1" d="M137.025 125.682C136.723 125.508 136.408 125.355 136.084 125.227C137.002 126.061 137.685 127.122 138.065 128.303C138.445 129.484 138.509 130.745 138.25 131.958C137.99 133.172 137.417 134.296 136.587 135.218C135.758 136.14 134.701 136.828 133.522 137.213C129.444 138.553 125.036 136.04 120.775 136.564C119.915 136.627 119.094 136.942 118.411 137.469C116.513 139.113 117.46 142.143 118.134 144.566C118.574 146.137 119.107 151.857 116.325 152.014H116.278C117.141 152.857 117.92 153.406 118.474 153.375C121.256 153.218 120.722 147.503 120.283 145.927C119.609 143.504 118.662 140.473 120.56 138.83C121.243 138.303 122.064 137.988 122.924 137.925C127.185 137.401 131.593 139.913 135.671 138.574C136.972 138.148 138.122 137.355 138.982 136.289C139.843 135.224 140.377 133.932 140.52 132.57C140.663 131.207 140.409 129.833 139.789 128.611C139.169 127.39 138.209 126.375 137.025 125.688V125.682Z" fill="black"/>
<path d="M359.726 314.491H189.274V367.354H359.726V314.491Z" fill="#3F3D56"/>
<ellipse cx="273.666" cy="341.268" rx="10.0122" ry="10.0127" fill="white"/>
</svg>
